<svg width="180" height="115" viewBox="0 0 180 115" fill="none" xmlns="http://www.w3.org/2000/svg">
<mask id="mask0" mask-type="alpha" maskUnits="userSpaceOnUse" x="0" y="0" width="180" height="115">
<ellipse cx="90" cy="57.5" rx="90" ry="57.5" fill="url(#paint0_radial)"/>
</mask>
<g mask="url(#mask0)">
<line x1="63.2727" y1="2.53967" x2="63.2727" y2="34.1613" stroke="black" stroke-width="2"/>
<line x1="8.84924" y1="33.7937" x2="165.062" y2="33.7937" stroke="black" stroke-width="2"/>
<line x1="-1.29443" y1="64.1505" x2="174.53" y2="64.1505" stroke="black" stroke-width="2"/>
<line x1="18.3169" y1="93.8748" x2="165.062" y2="93.8748" stroke="black" stroke-width="2"/>
<line x1="39.2804" y1="2.1721" x2="115.02" y2="2.1721" stroke="black" stroke-width="2"/>
<line x1="133.603" y1="10.7613" x2="133.603" y2="34.1613" stroke="black" stroke-width="2"/>
<line x1="157.947" y1="64.518" x2="157.947" y2="94.2424" stroke="black" stroke-width="2"/>
<line x1="147.128" y1="34.1613" x2="147.128" y2="63.8856" stroke="black" stroke-width="2"/>
<line x1="45.6903" y1="64.518" x2="45.6903" y2="94.2424" stroke="black" stroke-width="2"/>
<line x1="78.8265" y1="94.2424" x2="78.8265" y2="119.54" stroke="black" stroke-width="2"/>
</g>
<path d="M115 55V55.582L106.474 64H38V63.4179L46.5259 55H115Z" fill="white" stroke="black" stroke-width="2"/>
<path d="M38 63.5858V33.4142L46.4142 25H47V54V54.5858L38 63.5858Z" fill="white" stroke="black" stroke-width="2"/>
<rect x="47" y="25" width="68" height="30" fill="white" stroke="black" stroke-width="2"/>
<path d="M61.4516 34.282L63.6296 41.158L67.1036 34.282H69.8396L68.7416 46H66.7436L67.5536 37.18L63.9176 44.74H62.6396L60.3536 36.892L59.5076 46H57.5276L58.6256 34.282H61.4516ZM75.7088 40.87C76.2368 40.87 76.8788 40.978 77.6348 41.194L77.7248 40.366C77.7368 40.282 77.7428 40.204 77.7428 40.132V39.934C77.7428 39.478 77.6408 39.142 77.4368 38.926C77.2448 38.71 76.9208 38.602 76.4648 38.602C76.0088 38.602 75.6368 38.716 75.3488 38.944C75.0608 39.16 74.8928 39.46 74.8448 39.844H72.6848C72.7928 38.848 73.1828 38.128 73.8548 37.684C74.5388 37.228 75.4088 37 76.4648 37C78.6368 37 79.7228 37.978 79.7228 39.934V40.168C79.7228 40.252 79.7168 40.342 79.7048 40.438L79.1828 46H77.4728C77.4488 45.808 77.4368 45.616 77.4368 45.424C77.4368 45.232 77.4308 45.034 77.4188 44.83C76.7948 45.778 75.9788 46.252 74.9708 46.252C74.0108 46.252 73.2728 46.006 72.7568 45.514C72.2768 45.058 72.0368 44.464 72.0368 43.732C72.0368 42.772 72.4088 42.04 73.1528 41.536C73.7888 41.092 74.6408 40.87 75.7088 40.87ZM77.5088 42.598C76.9328 42.406 76.4528 42.31 76.0688 42.31C75.6848 42.31 75.3908 42.334 75.1868 42.382C74.9948 42.43 74.8208 42.502 74.6648 42.598C74.3168 42.814 74.1428 43.096 74.1428 43.444C74.1428 43.792 74.2568 44.068 74.4848 44.272C74.7128 44.476 75.0068 44.578 75.3668 44.578C75.7268 44.578 76.0148 44.53 76.2308 44.434C76.4588 44.326 76.6628 44.182 76.8428 44.002C77.2148 43.63 77.4368 43.162 77.5088 42.598ZM88.0625 39.394C87.8225 39.334 87.5345 39.304 87.1985 39.304C85.9265 39.304 85.2005 40.258 85.0205 42.166L84.6605 46H82.6805L83.5085 37.216H85.4885L85.3265 38.962C85.6145 38.314 85.9565 37.84 86.3525 37.54C86.7605 37.228 87.1865 37.072 87.6305 37.072C87.8465 37.072 88.0685 37.114 88.2965 37.198L88.0625 39.394ZM91.1937 37.216H93.1557L92.3277 46H90.3657L91.1937 37.216ZM91.1937 34.426C91.2417 34.042 91.3797 33.736 91.6077 33.508C91.8477 33.268 92.1597 33.148 92.5437 33.148C92.9277 33.148 93.2097 33.268 93.3897 33.508C93.5817 33.736 93.6597 34.048 93.6237 34.444C93.5997 34.828 93.4677 35.134 93.2277 35.362C92.9877 35.59 92.6757 35.704 92.2917 35.704C91.9197 35.704 91.6377 35.59 91.4457 35.362C91.2537 35.134 91.1697 34.822 91.1937 34.426ZM100.425 37C100.965 37 101.457 37.096 101.901 37.288C102.357 37.468 102.741 37.75 103.053 38.134C103.725 38.95 103.989 40.12 103.845 41.644C103.713 43.108 103.233 44.26 102.405 45.1C101.637 45.868 100.695 46.252 99.579 46.252C98.451 46.252 97.575 45.868 96.951 45.1C96.279 44.284 96.015 43.132 96.159 41.644C96.291 40.132 96.771 38.962 97.599 38.134C98.355 37.378 99.297 37 100.425 37ZM101.847 41.626C101.943 40.714 101.853 40.036 101.577 39.592C101.301 39.136 100.881 38.908 100.317 38.908C99.765 38.908 99.285 39.136 98.877 39.592C98.481 40.036 98.235 40.714 98.139 41.626C98.043 42.538 98.139 43.222 98.427 43.678C98.715 44.122 99.135 44.344 99.687 44.344C100.239 44.344 100.713 44.122 101.109 43.678C101.517 43.222 101.763 42.538 101.847 41.626Z" fill="black"/>
<path d="M134 85V85.5821L125.474 94H75V93.4179L83.5259 85H134Z" fill="white" stroke="black" stroke-width="2"/>
<path d="M75 93.5858V63.4142L83.4142 55H84V84V84.5858L75 93.5858Z" fill="white" stroke="black" stroke-width="2"/>
<rect x="84" y="55" width="50" height="30" fill="white" stroke="black" stroke-width="2"/>
<path d="M94.9661 64.282H101.644L101.464 66.172H96.7661L96.4781 69.196H100.762L100.564 71.068H96.2981L95.8481 76H93.8681L94.9661 64.282ZM108.865 69.394C108.625 69.334 108.337 69.304 108.001 69.304C106.729 69.304 106.003 70.258 105.823 72.166L105.463 76H103.483L104.311 67.216H106.291L106.129 68.962C106.417 68.314 106.759 67.84 107.155 67.54C107.563 67.228 107.989 67.072 108.433 67.072C108.649 67.072 108.871 67.114 109.099 67.198L108.865 69.394ZM111.996 67.216H113.958L113.13 76H111.168L111.996 67.216ZM111.996 64.426C112.044 64.042 112.182 63.736 112.41 63.508C112.65 63.268 112.962 63.148 113.346 63.148C113.73 63.148 114.012 63.268 114.192 63.508C114.384 63.736 114.462 64.048 114.426 64.444C114.402 64.828 114.27 65.134 114.03 65.362C113.79 65.59 113.478 65.704 113.094 65.704C112.722 65.704 112.44 65.59 112.248 65.362C112.056 65.134 111.972 64.822 111.996 64.426ZM116.673 74.218L121.173 69.016H117.141L117.321 67.234H123.531L123.351 69.016L118.977 74.218H122.883L122.703 76H116.493L116.673 74.218Z" fill="black"/>
<defs>
<radialGradient id="paint0_radial" cx="0" cy="0" r="1" gradientUnits="userSpaceOnUse" gradientTransform="translate(90 57.5) rotate(90) scale(57.5 90)">
<stop stop-color="white"/>
<stop offset="0.463542" stop-color="white" stop-opacity="0.476981"/>
<stop offset="0.90625" stop-color="white" stop-opacity="0"/>
</radialGradient>
</defs>
</svg>
